<svg width="512" height="512" viewBox="0 0 512 512" fill="none" xmlns="http://www.w3.org/2000/svg">
<rect width="512" height="512" rx="50" fill="#222222"/>
<path d="M179.8 113C193.933 113 206.333 115.533 217 120.6C227.933 125.4 238.733 132.867 249.4 143L229.4 163.4C220.867 155.933 212.867 150.6 205.4 147.4C198.2 144.2 189.667 142.6 179.8 142.6C161.4 142.6 146.333 151.133 134.6 168.2C123.133 185.267 117.4 214.2 117.4 255C117.4 283.533 119.533 306.067 123.8 322.6C128.333 338.867 134.867 350.467 143.4 357.4C152.2 364.333 163.267 367.8 176.6 367.8C191 367.8 204.2 363.8 216.2 355.8V270.2H178.6L174.6 240.6H251.4V373.4C227.933 389.667 202.867 397.8 176.2 397.8C111.4 397.8 79 350.2 79 255C79 223.8 83.5333 197.533 92.6 176.2C101.667 154.867 113.8 139 129 128.6C144.2 118.2 161.133 113 179.8 113Z" fill="white"/>
<path d="M433.706 117.4L429.706 147.8H368.506V393H332.106V147.8H269.306V117.4H433.706Z" fill="white"/>
</svg>
